<?xml version="1.0" encoding="UTF-8" standalone="no"?>
<!DOCTYPE svg PUBLIC "-//W3C//DTD SVG 1.1//EN" "http://www.w3.org/Graphics/SVG/1.1/DTD/svg11.dtd">
<svg xmlns="http://www.w3.org/2000/svg" version="1.1" viewBox="0.00 0.00 1448.00 1448.00">
<g stroke-width="2.00" fill="none" stroke-linecap="butt">
<path stroke="#f68e97" vector-effect="non-scaling-stroke" d="
  M 679.86 456.35
  L 772.38 709.77
  A 0.64 0.63 71.1 0 0 773.16 710.16
  Q 842.89 688.59 909.21 658.09
  Q 909.79 657.82 909.57 657.22
  L 758.21 237.92
  A 1.39 1.38 80.1 0 0 756.91 237.00
  L 725.86 237.00
  Q 725.20 237.00 724.98 237.63
  L 543.04 753.28
  A 0.58 0.58 0.0 0 0 543.58 754.06
  L 573.66 754.09
  Q 574.30 754.09 574.52 753.49
  Q 579.38 739.87 584.41 726.31
  C 585.33 723.83 586.20 719.98 587.77 716.98
  A 0.08 0.08 0.0 0 0 587.75 716.88
  Q 587.64 716.76 587.53 716.65
  A 0.38 0.37 -55.6 0 1 587.46 716.23
  C 590.25 710.31 592.52 702.40 594.11 698.05
  C 601.15 678.84 607.67 659.45 614.70 640.23
  C 616.02 636.59 617.49 632.76 618.35 628.96
  C 618.95 626.29 620.12 624.02 621.05 621.47
  Q 630.65 595.01 640.07 568.48
  Q 647.94 546.34 655.54 524.11
  C 663.29 501.45 671.49 478.92 679.46 456.36
  A 0.22 0.21 -45.7 0 1 679.86 456.35"
/>
<path stroke="#f68e97" vector-effect="non-scaling-stroke" d="
  M 818.05 832.75
  L 853.53 931.04
  Q 853.70 931.50 853.20 931.50
  L 758.03 931.50
  Q 757.00 931.50 757.00 932.53
  L 757.00 957.22
  Q 757.00 957.88 757.66 957.88
  L 1084.16 957.93
  Q 1084.75 957.93 1084.75 957.34
  L 1084.75 932.00
  Q 1084.75 931.50 1084.25 931.50
  L 1009.48 931.50
  Q 1008.93 931.50 1008.75 930.98
  L 946.85 759.74
  Q 946.69 759.30 947.08 759.06
  C 1013.40 716.20 1075.47 667.05 1130.65 609.91
  C 1169.78 569.39 1205.23 523.54 1228.31 472.23
  C 1230.95 466.35 1225.00 461.80 1220.58 467.05
  C 1184.84 509.57 1142.20 546.97 1097.69 578.94
  Q 1022.82 632.72 938.56 673.68
  C 857.07 713.30 772.80 747.12 684.75 769.23
  C 639.97 780.47 592.98 788.29 546.44 787.30
  C 510.79 786.54 466.27 777.78 448.68 742.90
  A 0.40 0.39 -37.6 0 0 448.03 742.82
  L 341.82 864.02
  A 0.64 0.62 50.5 0 0 341.76 864.76
  C 378.99 926.50 473.67 927.91 535.51 920.77
  C 633.08 909.52 729.00 875.20 816.87 832.27
  Q 817.72 831.86 818.05 832.75"
/>
<path stroke="#f68e97" vector-effect="non-scaling-stroke" d="
  M 1024.43 773.17
  A 23.83 23.83 0.0 0 0 1000.60 749.34
  A 23.83 23.83 0.0 0 0 976.77 773.17
  A 23.83 23.83 0.0 0 0 1000.60 797.00
  A 23.83 23.83 0.0 0 0 1024.43 773.17"
/>
<path stroke="#f68e97" vector-effect="non-scaling-stroke" d="
  M 581.80 1204.90
  Q 592.21 1211.29 604.07 1213.17
  C 657.07 1221.58 705.52 1189.28 715.41 1136.09
  C 728.04 1068.20 662.10 1041.69 609.27 1067.35
  Q 575.33 1083.84 561.17 1118.81
  C 548.81 1149.36 551.02 1186.03 581.80 1204.90"
/>
<path stroke="#f68e97" vector-effect="non-scaling-stroke" d="
  M 828.64 1157.55
  C 824.45 1169.29 812.45 1175.25 800.49 1175.00
  C 758.79 1174.12 777.00 1094.51 821.68 1101.57
  Q 830.72 1103.00 835.44 1111.95
  Q 835.70 1112.45 836.22 1112.26
  L 885.31 1094.50
  Q 885.87 1094.30 885.66 1093.75
  C 875.90 1067.25 843.22 1056.25 816.93 1057.87
  C 769.14 1060.82 732.82 1096.31 727.18 1143.77
  C 720.84 1197.08 765.01 1223.16 812.43 1212.40
  C 844.59 1205.10 872.60 1182.69 882.29 1150.75
  Q 886.12 1138.10 888.38 1124.97
  Q 888.46 1124.50 887.98 1124.50
  L 810.47 1124.50
  Q 809.92 1124.50 809.82 1125.04
  L 804.02 1156.47
  Q 803.93 1157.00 804.47 1157.00
  L 828.25 1157.00
  Q 828.83 1157.00 828.64 1157.55"
/>
<path stroke="#f68e97" vector-effect="non-scaling-stroke" d="
  M 172.72 1192.96
  A 0.35 0.35 0.0 0 1 173.04 1192.75
  L 215.77 1192.75
  A 0.35 0.35 0.0 0 1 216.12 1193.07
  L 217.48 1211.93
  A 0.35 0.35 0.0 0 0 217.83 1212.25
  L 269.50 1212.25
  A 0.35 0.35 0.0 0 0 269.85 1211.85
  L 246.46 1060.53
  A 0.35 0.35 0.0 0 0 246.11 1060.23
  L 190.32 1059.97
  A 0.35 0.35 0.0 0 0 190.01 1060.16
  L 112.29 1211.74
  A 0.35 0.35 0.0 0 0 112.60 1212.25
  L 163.81 1212.25
  A 0.35 0.35 0.0 0 0 164.13 1212.04
  L 172.72 1192.96"
/>
<path stroke="#f68e97" vector-effect="non-scaling-stroke" d="
  M 387.81 1198.56
  C 402.64 1186.57 410.67 1170.00 414.34 1151.57
  C 414.69 1149.78 414.58 1147.61 415.26 1145.00
  Q 416.79 1139.11 418.74 1127.98
  C 422.66 1105.56 426.95 1083.22 430.93 1060.80
  Q 431.01 1060.33 430.54 1060.32
  L 382.43 1060.06
  A 0.89 0.88 5.1 0 0 381.56 1060.78
  Q 373.14 1106.85 364.75 1150.65
  C 362.72 1161.23 358.35 1169.19 347.61 1170.18
  C 333.83 1171.46 328.85 1163.61 331.23 1150.49
  Q 339.32 1105.87 347.58 1060.87
  Q 347.70 1060.24 347.05 1060.24
  L 299.17 1060.10
  A 1.03 1.02 5.0 0 0 298.16 1060.94
  Q 289.72 1106.47 281.46 1152.25
  C 276.83 1177.88 283.01 1203.98 311.27 1211.50
  C 335.76 1218.02 367.44 1215.04 387.81 1198.56"
/>
<path stroke="#f68e97" vector-effect="non-scaling-stroke" d="
  M 949.57 1162.37
  L 967.41 1211.76
  Q 967.58 1212.25 968.10 1212.25
  L 1020.21 1212.25
  Q 1020.88 1212.25 1020.61 1211.64
  Q 1011.74 1191.83 1002.83 1171.71
  Q 998.36 1161.61 992.67 1152.59
  A 0.93 0.93 0.0 0 1 993.13 1151.22
  C 1008.77 1145.45 1020.29 1138.77 1025.82 1122.08
  C 1029.79 1110.11 1031.33 1094.25 1026.20 1082.63
  C 1015.99 1059.50 985.31 1059.84 964.51 1060.05
  Q 940.13 1060.29 915.99 1059.98
  A 0.60 0.60 0.0 0 0 915.39 1060.47
  L 887.61 1211.77
  Q 887.52 1212.25 888.00 1212.25
  L 935.26 1212.25
  Q 935.79 1212.25 935.89 1211.72
  L 944.92 1162.52
  Q 945.01 1162.07 945.47 1162.04
  L 948.86 1161.89
  Q 949.39 1161.87 949.57 1162.37"
/>
<path stroke="#f68e97" vector-effect="non-scaling-stroke" d="
  M 1107.58 1060.33
  L 1059.26 1060.06
  Q 1058.73 1060.05 1058.64 1060.57
  L 1030.85 1211.77
  Q 1030.76 1212.25 1031.25 1212.25
  L 1079.79 1212.25
  Q 1080.26 1212.25 1080.35 1211.78
  L 1108.00 1060.83
  Q 1108.09 1060.33 1107.58 1060.33"
/>
<path stroke="#f68e97" vector-effect="non-scaling-stroke" d="
  M 1164.57 1150.14
  C 1166.81 1139.32 1168.43 1128.36 1170.79 1117.57
  Q 1171.41 1114.78 1171.55 1111.93
  C 1171.68 1109.50 1172.52 1107.70 1172.89 1105.67
  Q 1176.97 1083.25 1181.12 1060.75
  Q 1181.20 1060.33 1180.78 1060.33
  L 1132.38 1060.05
  A 0.67 0.67 0.0 0 0 1131.71 1060.60
  L 1103.86 1211.87
  A 0.32 0.32 0.0 0 0 1104.18 1212.25
  L 1198.29 1212.25
  A 0.67 0.67 0.0 0 0 1198.95 1211.70
  L 1207.17 1167.11
  A 0.52 0.51 -84.8 0 0 1206.67 1166.50
  L 1162.47 1166.50
  Q 1161.83 1166.50 1161.92 1165.86
  C 1162.21 1163.77 1164.95 1151.45 1164.63 1150.71
  Q 1164.51 1150.44 1164.57 1150.14"
/>
<path stroke="#f68e97" vector-effect="non-scaling-stroke" d="
  M 1276.43 1140.30
  C 1276.78 1140.22 1283.05 1105.90 1283.72 1102.49
  Q 1283.75 1102.33 1283.70 1102.13
  Q 1283.64 1101.88 1283.69 1101.64
  L 1291.27 1060.85
  Q 1291.37 1060.34 1290.84 1060.33
  L 1242.51 1060.02
  Q 1241.95 1060.02 1241.85 1060.56
  L 1214.14 1211.50
  A 0.64 0.64 0.0 0 0 1214.77 1212.25
  L 1308.32 1212.25
  A 0.89 0.88 -84.9 0 0 1309.19 1211.52
  L 1317.26 1167.13
  A 0.54 0.54 0.0 0 0 1316.73 1166.50
  L 1272.29 1166.50
  Q 1271.70 1166.50 1271.83 1165.93
  Q 1274.74 1153.37 1276.17 1140.59
  Q 1276.20 1140.35 1276.43 1140.30"
/>
<path stroke="#f68e97" vector-effect="non-scaling-stroke" d="
  M 471.48 1107.04
  L 452.02 1211.57
  A 0.57 0.57 0.0 0 0 452.58 1212.25
  L 500.78 1212.25
  Q 501.33 1212.25 501.43 1211.71
  L 520.95 1106.97
  Q 521.04 1106.50 521.52 1106.50
  L 554.49 1106.50
  A 0.68 0.67 -84.9 0 0 555.15 1105.94
  L 563.45 1060.76
  Q 563.54 1060.25 563.02 1060.25
  L 445.97 1060.25
  Q 445.50 1060.25 445.42 1060.71
  L 437.16 1105.73
  Q 437.01 1106.50 437.80 1106.50
  L 471.04 1106.50
  Q 471.58 1106.50 471.48 1107.04"
/>
<path stroke="#f68e97" vector-effect="non-scaling-stroke" d="
  M 1020.51 773.15
  A 19.91 19.91 0.0 0 0 1000.60 753.24
  A 19.91 19.91 0.0 0 0 980.69 773.15
  A 19.91 19.91 0.0 0 0 1000.60 793.06
  A 19.91 19.91 0.0 0 0 1020.51 773.15"
/>
<path stroke="#f68e97" vector-effect="non-scaling-stroke" d="
  M 995.78 774.40
  L 999.95 774.54
  Q 1000.35 774.55 1000.54 774.90
  L 1006.74 786.21
  Q 1007.04 786.75 1007.66 786.75
  L 1010.75 786.75
  Q 1011.51 786.75 1011.14 786.08
  L 1005.10 775.12
  A 0.57 0.57 0.0 0 1 1005.56 774.27
  C 1011.92 773.83 1014.10 765.11 1009.21 761.65
  C 1005.64 759.12 996.76 759.89 992.15 759.83
  Q 991.51 759.82 991.51 760.46
  L 991.48 786.12
  Q 991.48 786.75 992.11 786.75
  L 994.63 786.75
  Q 995.25 786.75 995.25 786.13
  L 995.25 774.91
  Q 995.25 774.38 995.78 774.40"
/>
<path stroke="#f68e97" vector-effect="non-scaling-stroke" d="
  M 995.25 764.36
  L 995.25 769.98
  A 0.54 0.54 0.0 0 0 995.79 770.52
  L 1003.46 770.52
  A 4.51 3.16 0.0 0 0 1007.97 767.36
  L 1007.97 766.98
  A 4.51 3.16 -0.0 0 0 1003.46 763.82
  L 995.79 763.82
  A 0.54 0.54 0.0 0 0 995.25 764.36"
/>
<path stroke="#f68e97" vector-effect="non-scaling-stroke" d="
  M 610.54 1123.54
  C 601.51 1139.51 602.03 1167.43 626.51 1169.39
  C 640.24 1170.49 651.57 1164.61 659.17 1153.24
  C 667.93 1140.15 669.82 1116.47 653.68 1107.83
  C 637.70 1099.28 618.74 1109.02 610.54 1123.54"
/>
<path stroke="#f68e97" vector-effect="non-scaling-stroke" d="
  M 209.88 1105.82
  A 0.33 0.33 0.0 0 0 209.24 1105.72
  L 186.85 1159.54
  A 0.33 0.33 0.0 0 0 187.15 1160.00
  L 213.36 1160.00
  A 0.33 0.33 0.0 0 0 213.69 1159.65
  L 209.88 1105.82"
/>
<path stroke="#f68e97" vector-effect="non-scaling-stroke" d="
  M 979.67 1107.45
  C 978.35 1097.86 964.10 1098.08 957.24 1098.63
  Q 956.67 1098.68 956.57 1099.23
  L 951.17 1128.72
  Q 951.06 1129.30 951.65 1129.35
  C 966.47 1130.71 982.28 1126.37 979.67 1107.45"
/>
</g>
<path fill="#ed1c2e" d="
  M 0.00 0.00
  L 1448.00 0.00
  L 1448.00 1448.00
  L 0.00 1448.00
  L 0.00 0.00
  Z
  M 679.86 456.35
  L 772.38 709.77
  A 0.64 0.63 71.1 0 0 773.16 710.16
  Q 842.89 688.59 909.21 658.09
  Q 909.79 657.82 909.57 657.22
  L 758.21 237.92
  A 1.39 1.38 80.1 0 0 756.91 237.00
  L 725.86 237.00
  Q 725.20 237.00 724.98 237.63
  L 543.04 753.28
  A 0.58 0.58 0.0 0 0 543.58 754.06
  L 573.66 754.09
  Q 574.30 754.09 574.52 753.49
  Q 579.38 739.87 584.41 726.31
  C 585.33 723.83 586.20 719.98 587.77 716.98
  A 0.08 0.08 0.0 0 0 587.75 716.88
  Q 587.64 716.76 587.53 716.65
  A 0.38 0.37 -55.6 0 1 587.46 716.23
  C 590.25 710.31 592.52 702.40 594.11 698.05
  C 601.15 678.84 607.67 659.45 614.70 640.23
  C 616.02 636.59 617.49 632.76 618.35 628.96
  C 618.95 626.29 620.12 624.02 621.05 621.47
  Q 630.65 595.01 640.07 568.48
  Q 647.94 546.34 655.54 524.11
  C 663.29 501.45 671.49 478.92 679.46 456.36
  A 0.22 0.21 -45.7 0 1 679.86 456.35
  Z
  M 818.05 832.75
  L 853.53 931.04
  Q 853.70 931.50 853.20 931.50
  L 758.03 931.50
  Q 757.00 931.50 757.00 932.53
  L 757.00 957.22
  Q 757.00 957.88 757.66 957.88
  L 1084.16 957.93
  Q 1084.75 957.93 1084.75 957.34
  L 1084.75 932.00
  Q 1084.75 931.50 1084.25 931.50
  L 1009.48 931.50
  Q 1008.93 931.50 1008.75 930.98
  L 946.85 759.74
  Q 946.69 759.30 947.08 759.06
  C 1013.40 716.20 1075.47 667.05 1130.65 609.91
  C 1169.78 569.39 1205.23 523.54 1228.31 472.23
  C 1230.95 466.35 1225.00 461.80 1220.58 467.05
  C 1184.84 509.57 1142.20 546.97 1097.69 578.94
  Q 1022.82 632.72 938.56 673.68
  C 857.07 713.30 772.80 747.12 684.75 769.23
  C 639.97 780.47 592.98 788.29 546.44 787.30
  C 510.79 786.54 466.27 777.78 448.68 742.90
  A 0.40 0.39 -37.6 0 0 448.03 742.82
  L 341.82 864.02
  A 0.64 0.62 50.5 0 0 341.76 864.76
  C 378.99 926.50 473.67 927.91 535.51 920.77
  C 633.08 909.52 729.00 875.20 816.87 832.27
  Q 817.72 831.86 818.05 832.75
  Z
  M 1024.43 773.17
  A 23.83 23.83 0.0 0 0 1000.60 749.34
  A 23.83 23.83 0.0 0 0 976.77 773.17
  A 23.83 23.83 0.0 0 0 1000.60 797.00
  A 23.83 23.83 0.0 0 0 1024.43 773.17
  Z
  M 581.80 1204.90
  Q 592.21 1211.29 604.07 1213.17
  C 657.07 1221.58 705.52 1189.28 715.41 1136.09
  C 728.04 1068.20 662.10 1041.69 609.27 1067.35
  Q 575.33 1083.84 561.17 1118.81
  C 548.81 1149.36 551.02 1186.03 581.80 1204.90
  Z
  M 828.64 1157.55
  C 824.45 1169.29 812.45 1175.25 800.49 1175.00
  C 758.79 1174.12 777.00 1094.51 821.68 1101.57
  Q 830.72 1103.00 835.44 1111.95
  Q 835.70 1112.45 836.22 1112.26
  L 885.31 1094.50
  Q 885.87 1094.30 885.66 1093.75
  C 875.90 1067.25 843.22 1056.25 816.93 1057.87
  C 769.14 1060.82 732.82 1096.31 727.18 1143.77
  C 720.84 1197.08 765.01 1223.16 812.43 1212.40
  C 844.59 1205.10 872.60 1182.69 882.29 1150.75
  Q 886.12 1138.10 888.38 1124.97
  Q 888.46 1124.50 887.98 1124.50
  L 810.47 1124.50
  Q 809.92 1124.50 809.82 1125.04
  L 804.02 1156.47
  Q 803.93 1157.00 804.47 1157.00
  L 828.25 1157.00
  Q 828.83 1157.00 828.64 1157.55
  Z
  M 172.72 1192.96
  A 0.35 0.35 0.0 0 1 173.04 1192.75
  L 215.77 1192.75
  A 0.35 0.35 0.0 0 1 216.12 1193.07
  L 217.48 1211.93
  A 0.35 0.35 0.0 0 0 217.83 1212.25
  L 269.50 1212.25
  A 0.35 0.35 0.0 0 0 269.85 1211.85
  L 246.46 1060.53
  A 0.35 0.35 0.0 0 0 246.11 1060.23
  L 190.32 1059.97
  A 0.35 0.35 0.0 0 0 190.01 1060.16
  L 112.29 1211.74
  A 0.35 0.35 0.0 0 0 112.60 1212.25
  L 163.81 1212.25
  A 0.35 0.35 0.0 0 0 164.13 1212.04
  L 172.72 1192.96
  Z
  M 387.81 1198.56
  C 402.64 1186.57 410.67 1170.00 414.34 1151.57
  C 414.69 1149.78 414.58 1147.61 415.26 1145.00
  Q 416.79 1139.11 418.74 1127.98
  C 422.66 1105.56 426.95 1083.22 430.93 1060.80
  Q 431.01 1060.33 430.54 1060.32
  L 382.43 1060.06
  A 0.89 0.88 5.1 0 0 381.56 1060.78
  Q 373.14 1106.85 364.75 1150.65
  C 362.72 1161.23 358.35 1169.19 347.61 1170.18
  C 333.83 1171.46 328.85 1163.61 331.23 1150.49
  Q 339.32 1105.87 347.58 1060.87
  Q 347.70 1060.24 347.05 1060.24
  L 299.17 1060.10
  A 1.03 1.02 5.0 0 0 298.16 1060.94
  Q 289.72 1106.47 281.46 1152.25
  C 276.83 1177.88 283.01 1203.98 311.27 1211.50
  C 335.76 1218.02 367.44 1215.04 387.81 1198.56
  Z
  M 949.57 1162.37
  L 967.41 1211.76
  Q 967.58 1212.25 968.10 1212.25
  L 1020.21 1212.25
  Q 1020.88 1212.25 1020.61 1211.64
  Q 1011.74 1191.83 1002.83 1171.71
  Q 998.36 1161.61 992.67 1152.59
  A 0.93 0.93 0.0 0 1 993.13 1151.22
  C 1008.77 1145.45 1020.29 1138.77 1025.82 1122.08
  C 1029.79 1110.11 1031.33 1094.25 1026.20 1082.63
  C 1015.99 1059.50 985.31 1059.84 964.51 1060.05
  Q 940.13 1060.29 915.99 1059.98
  A 0.60 0.60 0.0 0 0 915.39 1060.47
  L 887.61 1211.77
  Q 887.52 1212.25 888.00 1212.25
  L 935.26 1212.25
  Q 935.79 1212.25 935.89 1211.72
  L 944.92 1162.52
  Q 945.01 1162.07 945.47 1162.04
  L 948.86 1161.89
  Q 949.39 1161.87 949.57 1162.37
  Z
  M 1107.58 1060.33
  L 1059.26 1060.06
  Q 1058.73 1060.05 1058.64 1060.57
  L 1030.85 1211.77
  Q 1030.76 1212.25 1031.25 1212.25
  L 1079.79 1212.25
  Q 1080.26 1212.25 1080.35 1211.78
  L 1108.00 1060.83
  Q 1108.09 1060.33 1107.58 1060.33
  Z
  M 1164.57 1150.14
  C 1166.81 1139.32 1168.43 1128.36 1170.79 1117.57
  Q 1171.41 1114.78 1171.55 1111.93
  C 1171.68 1109.50 1172.52 1107.70 1172.89 1105.67
  Q 1176.97 1083.25 1181.12 1060.75
  Q 1181.20 1060.33 1180.78 1060.33
  L 1132.38 1060.05
  A 0.67 0.67 0.0 0 0 1131.71 1060.60
  L 1103.86 1211.87
  A 0.32 0.32 0.0 0 0 1104.18 1212.25
  L 1198.29 1212.25
  A 0.67 0.67 0.0 0 0 1198.95 1211.70
  L 1207.17 1167.11
  A 0.52 0.51 -84.8 0 0 1206.67 1166.50
  L 1162.47 1166.50
  Q 1161.83 1166.50 1161.92 1165.86
  C 1162.21 1163.77 1164.95 1151.45 1164.63 1150.71
  Q 1164.51 1150.44 1164.57 1150.14
  Z
  M 1276.43 1140.30
  C 1276.78 1140.22 1283.05 1105.90 1283.72 1102.49
  Q 1283.75 1102.33 1283.70 1102.13
  Q 1283.64 1101.88 1283.69 1101.64
  L 1291.27 1060.85
  Q 1291.37 1060.34 1290.84 1060.33
  L 1242.51 1060.02
  Q 1241.95 1060.02 1241.85 1060.56
  L 1214.14 1211.50
  A 0.64 0.64 0.0 0 0 1214.77 1212.25
  L 1308.32 1212.25
  A 0.89 0.88 -84.9 0 0 1309.19 1211.52
  L 1317.26 1167.13
  A 0.54 0.54 0.0 0 0 1316.73 1166.50
  L 1272.29 1166.50
  Q 1271.70 1166.50 1271.83 1165.93
  Q 1274.74 1153.37 1276.17 1140.59
  Q 1276.20 1140.35 1276.43 1140.30
  Z
  M 471.48 1107.04
  L 452.02 1211.57
  A 0.57 0.57 0.0 0 0 452.58 1212.25
  L 500.78 1212.25
  Q 501.33 1212.25 501.43 1211.71
  L 520.95 1106.97
  Q 521.04 1106.50 521.52 1106.50
  L 554.49 1106.50
  A 0.68 0.67 -84.9 0 0 555.15 1105.94
  L 563.45 1060.76
  Q 563.54 1060.25 563.02 1060.25
  L 445.97 1060.25
  Q 445.50 1060.25 445.42 1060.71
  L 437.16 1105.73
  Q 437.01 1106.50 437.80 1106.50
  L 471.04 1106.50
  Q 471.58 1106.50 471.48 1107.04
  Z"
/>
<path fill="#ffffff" d="
  M 679.86 456.35
  A 0.22 0.21 -45.7 0 0 679.46 456.36
  C 671.49 478.92 663.29 501.45 655.54 524.11
  Q 647.94 546.34 640.07 568.48
  Q 630.65 595.01 621.05 621.47
  C 620.12 624.02 618.95 626.29 618.35 628.96
  C 617.49 632.76 616.02 636.59 614.70 640.23
  C 607.67 659.45 601.15 678.84 594.11 698.05
  C 592.52 702.40 590.25 710.31 587.46 716.23
  A 0.38 0.37 -55.6 0 0 587.53 716.65
  Q 587.64 716.76 587.75 716.88
  A 0.08 0.08 0.0 0 1 587.77 716.98
  C 586.20 719.98 585.33 723.83 584.41 726.31
  Q 579.38 739.87 574.52 753.49
  Q 574.30 754.09 573.66 754.09
  L 543.58 754.06
  A 0.58 0.58 0.0 0 1 543.04 753.28
  L 724.98 237.63
  Q 725.20 237.00 725.86 237.00
  L 756.91 237.00
  A 1.39 1.38 80.1 0 1 758.21 237.92
  L 909.57 657.22
  Q 909.79 657.82 909.21 658.09
  Q 842.89 688.59 773.16 710.16
  A 0.64 0.63 71.1 0 1 772.38 709.77
  L 679.86 456.35
  Z"
/>
<path fill="#ffffff" d="
  M 818.05 832.75
  Q 817.72 831.86 816.87 832.27
  C 729.00 875.20 633.08 909.52 535.51 920.77
  C 473.67 927.91 378.99 926.50 341.76 864.76
  A 0.64 0.62 50.5 0 1 341.82 864.02
  L 448.03 742.82
  A 0.40 0.39 -37.6 0 1 448.68 742.90
  C 466.27 777.78 510.79 786.54 546.44 787.30
  C 592.98 788.29 639.97 780.47 684.75 769.23
  C 772.80 747.12 857.07 713.30 938.56 673.68
  Q 1022.82 632.72 1097.69 578.94
  C 1142.20 546.97 1184.84 509.57 1220.58 467.05
  C 1225.00 461.80 1230.95 466.35 1228.31 472.23
  C 1205.23 523.54 1169.78 569.39 1130.65 609.91
  C 1075.47 667.05 1013.40 716.20 947.08 759.06
  Q 946.69 759.30 946.85 759.74
  L 1008.75 930.98
  Q 1008.93 931.50 1009.48 931.50
  L 1084.25 931.50
  Q 1084.75 931.50 1084.75 932.00
  L 1084.75 957.34
  Q 1084.75 957.93 1084.16 957.93
  L 757.66 957.88
  Q 757.00 957.88 757.00 957.22
  L 757.00 932.53
  Q 757.00 931.50 758.03 931.50
  L 853.20 931.50
  Q 853.70 931.50 853.53 931.04
  L 818.05 832.75
  Z"
/>
<path fill="#ffffff" d="
  M 1024.43 773.17
  A 23.83 23.83 0.0 0 1 1000.60 797.00
  A 23.83 23.83 0.0 0 1 976.77 773.17
  A 23.83 23.83 0.0 0 1 1000.60 749.34
  A 23.83 23.83 0.0 0 1 1024.43 773.17
  Z
  M 1020.51 773.15
  A 19.91 19.91 0.0 0 0 1000.60 753.24
  A 19.91 19.91 0.0 0 0 980.69 773.15
  A 19.91 19.91 0.0 0 0 1000.60 793.06
  A 19.91 19.91 0.0 0 0 1020.51 773.15
  Z"
/>
<path fill="#ed1c2e" d="
  M 1020.51 773.15
  A 19.91 19.91 0.0 0 1 1000.60 793.06
  A 19.91 19.91 0.0 0 1 980.69 773.15
  A 19.91 19.91 0.0 0 1 1000.60 753.24
  A 19.91 19.91 0.0 0 1 1020.51 773.15
  Z
  M 995.78 774.40
  L 999.95 774.54
  Q 1000.35 774.55 1000.54 774.90
  L 1006.74 786.21
  Q 1007.04 786.75 1007.66 786.75
  L 1010.75 786.75
  Q 1011.51 786.75 1011.14 786.08
  L 1005.10 775.12
  A 0.57 0.57 0.0 0 1 1005.56 774.27
  C 1011.92 773.83 1014.10 765.11 1009.21 761.65
  C 1005.64 759.12 996.76 759.89 992.15 759.83
  Q 991.51 759.82 991.51 760.46
  L 991.48 786.12
  Q 991.48 786.75 992.11 786.75
  L 994.63 786.75
  Q 995.25 786.75 995.25 786.13
  L 995.25 774.91
  Q 995.25 774.38 995.78 774.40
  Z"
/>
<path fill="#ffffff" d="
  M 995.25 774.91
  L 995.25 786.13
  Q 995.25 786.75 994.63 786.75
  L 992.11 786.75
  Q 991.48 786.75 991.48 786.12
  L 991.51 760.46
  Q 991.51 759.82 992.15 759.83
  C 996.76 759.89 1005.64 759.12 1009.21 761.65
  C 1014.10 765.11 1011.92 773.83 1005.56 774.27
  A 0.57 0.57 0.0 0 0 1005.10 775.12
  L 1011.14 786.08
  Q 1011.51 786.75 1010.75 786.75
  L 1007.66 786.75
  Q 1007.04 786.75 1006.74 786.21
  L 1000.54 774.90
  Q 1000.35 774.55 999.95 774.54
  L 995.78 774.40
  Q 995.25 774.38 995.25 774.91
  Z
  M 995.25 764.36
  L 995.25 769.98
  A 0.54 0.54 0.0 0 0 995.79 770.52
  L 1003.46 770.52
  A 4.51 3.16 0.0 0 0 1007.97 767.36
  L 1007.97 766.98
  A 4.51 3.16 -0.0 0 0 1003.46 763.82
  L 995.79 763.82
  A 0.54 0.54 0.0 0 0 995.25 764.36
  Z"
/>
<path fill="#ed1c2e" d="
  M 995.25 764.36
  A 0.54 0.54 0.0 0 1 995.79 763.82
  L 1003.46 763.82
  A 4.51 3.16 -0.0 0 1 1007.97 766.98
  L 1007.97 767.36
  A 4.51 3.16 0.0 0 1 1003.46 770.52
  L 995.79 770.52
  A 0.54 0.54 0.0 0 1 995.25 769.98
  L 995.25 764.36
  Z"
/>
<path fill="#ffffff" d="
  M 581.80 1204.90
  C 551.02 1186.03 548.81 1149.36 561.17 1118.81
  Q 575.33 1083.84 609.27 1067.35
  C 662.10 1041.69 728.04 1068.20 715.41 1136.09
  C 705.52 1189.28 657.07 1221.58 604.07 1213.17
  Q 592.21 1211.29 581.80 1204.90
  Z
  M 610.54 1123.54
  C 601.51 1139.51 602.03 1167.43 626.51 1169.39
  C 640.24 1170.49 651.57 1164.61 659.17 1153.24
  C 667.93 1140.15 669.82 1116.47 653.68 1107.83
  C 637.70 1099.28 618.74 1109.02 610.54 1123.54
  Z"
/>
<path fill="#ffffff" d="
  M 828.25 1157.00
  L 804.47 1157.00
  Q 803.93 1157.00 804.02 1156.47
  L 809.82 1125.04
  Q 809.92 1124.50 810.47 1124.50
  L 887.98 1124.50
  Q 888.46 1124.50 888.38 1124.97
  Q 886.12 1138.10 882.29 1150.75
  C 872.60 1182.69 844.59 1205.10 812.43 1212.40
  C 765.01 1223.16 720.84 1197.08 727.18 1143.77
  C 732.82 1096.31 769.14 1060.82 816.93 1057.87
  C 843.22 1056.25 875.90 1067.25 885.66 1093.75
  Q 885.87 1094.30 885.31 1094.50
  L 836.22 1112.26
  Q 835.70 1112.45 835.44 1111.95
  Q 830.72 1103.00 821.68 1101.57
  C 777.00 1094.51 758.79 1174.12 800.49 1175.00
  C 812.45 1175.25 824.45 1169.29 828.64 1157.55
  Q 828.83 1157.00 828.25 1157.00
  Z"
/>
<path fill="#ffffff" d="
  M 172.72 1192.96
  L 164.13 1212.04
  A 0.35 0.35 0.0 0 1 163.81 1212.25
  L 112.60 1212.25
  A 0.35 0.35 0.0 0 1 112.29 1211.74
  L 190.01 1060.16
  A 0.35 0.35 0.0 0 1 190.32 1059.97
  L 246.11 1060.23
  A 0.35 0.35 0.0 0 1 246.46 1060.53
  L 269.85 1211.85
  A 0.35 0.35 0.0 0 1 269.50 1212.25
  L 217.83 1212.25
  A 0.35 0.35 0.0 0 1 217.48 1211.93
  L 216.12 1193.07
  A 0.35 0.35 0.0 0 0 215.77 1192.75
  L 173.04 1192.75
  A 0.35 0.35 0.0 0 0 172.72 1192.96
  Z
  M 209.88 1105.82
  A 0.33 0.33 0.0 0 0 209.24 1105.72
  L 186.85 1159.54
  A 0.33 0.33 0.0 0 0 187.15 1160.00
  L 213.36 1160.00
  A 0.33 0.33 0.0 0 0 213.69 1159.65
  L 209.88 1105.82
  Z"
/>
<path fill="#ffffff" d="
  M 387.81 1198.56
  C 367.44 1215.04 335.76 1218.02 311.27 1211.50
  C 283.01 1203.98 276.83 1177.88 281.46 1152.25
  Q 289.72 1106.47 298.16 1060.94
  A 1.03 1.02 5.0 0 1 299.17 1060.10
  L 347.05 1060.24
  Q 347.70 1060.24 347.58 1060.87
  Q 339.32 1105.87 331.23 1150.49
  C 328.85 1163.61 333.83 1171.46 347.61 1170.18
  C 358.35 1169.19 362.72 1161.23 364.75 1150.65
  Q 373.14 1106.85 381.56 1060.78
  A 0.89 0.88 5.1 0 1 382.43 1060.06
  L 430.54 1060.32
  Q 431.01 1060.33 430.93 1060.80
  C 426.95 1083.22 422.66 1105.56 418.74 1127.98
  Q 416.79 1139.11 415.26 1145.00
  C 414.58 1147.61 414.69 1149.78 414.34 1151.57
  C 410.67 1170.00 402.64 1186.57 387.81 1198.56
  Z"
/>
<path fill="#ffffff" d="
  M 948.86 1161.89
  L 945.47 1162.04
  Q 945.01 1162.07 944.92 1162.52
  L 935.89 1211.72
  Q 935.79 1212.25 935.26 1212.25
  L 888.00 1212.25
  Q 887.52 1212.25 887.61 1211.77
  L 915.39 1060.47
  A 0.60 0.60 0.0 0 1 915.99 1059.98
  Q 940.13 1060.29 964.51 1060.05
  C 985.31 1059.84 1015.99 1059.50 1026.20 1082.63
  C 1031.33 1094.25 1029.79 1110.11 1025.82 1122.08
  C 1020.29 1138.77 1008.77 1145.45 993.13 1151.22
  A 0.93 0.93 0.0 0 0 992.67 1152.59
  Q 998.36 1161.61 1002.83 1171.71
  Q 1011.74 1191.83 1020.61 1211.64
  Q 1020.88 1212.25 1020.21 1212.25
  L 968.10 1212.25
  Q 967.58 1212.25 967.41 1211.76
  L 949.57 1162.37
  Q 949.39 1161.87 948.86 1161.89
  Z
  M 979.67 1107.45
  C 978.35 1097.86 964.10 1098.08 957.24 1098.63
  Q 956.67 1098.68 956.57 1099.23
  L 951.17 1128.72
  Q 951.06 1129.30 951.65 1129.35
  C 966.47 1130.71 982.28 1126.37 979.67 1107.45
  Z"
/>
<path fill="#ffffff" d="
  M 1059.26 1060.06
  L 1107.58 1060.33
  Q 1108.09 1060.33 1108.00 1060.83
  L 1080.35 1211.78
  Q 1080.26 1212.25 1079.79 1212.25
  L 1031.25 1212.25
  Q 1030.76 1212.25 1030.85 1211.77
  L 1058.64 1060.57
  Q 1058.73 1060.05 1059.26 1060.06
  Z"
/>
<path fill="#ffffff" d="
  M 1164.63 1150.71
  C 1164.95 1151.45 1162.21 1163.77 1161.92 1165.86
  Q 1161.83 1166.50 1162.47 1166.50
  L 1206.67 1166.50
  A 0.52 0.51 -84.8 0 1 1207.17 1167.11
  L 1198.95 1211.70
  A 0.67 0.67 0.0 0 1 1198.29 1212.25
  L 1104.18 1212.25
  A 0.32 0.32 0.0 0 1 1103.86 1211.87
  L 1131.71 1060.60
  A 0.67 0.67 0.0 0 1 1132.38 1060.05
  L 1180.78 1060.33
  Q 1181.20 1060.33 1181.12 1060.75
  Q 1176.97 1083.25 1172.89 1105.67
  C 1172.52 1107.70 1171.68 1109.50 1171.55 1111.93
  Q 1171.41 1114.78 1170.79 1117.57
  C 1168.43 1128.36 1166.81 1139.32 1164.57 1150.14
  Q 1164.51 1150.44 1164.63 1150.71
  Z"
/>
<path fill="#ffffff" d="
  M 1276.17 1140.59
  Q 1274.74 1153.37 1271.83 1165.93
  Q 1271.70 1166.50 1272.29 1166.50
  L 1316.73 1166.50
  A 0.54 0.54 0.0 0 1 1317.26 1167.13
  L 1309.19 1211.52
  A 0.89 0.88 -84.9 0 1 1308.32 1212.25
  L 1214.77 1212.25
  A 0.64 0.64 0.0 0 1 1214.14 1211.50
  L 1241.85 1060.56
  Q 1241.95 1060.02 1242.51 1060.02
  L 1290.84 1060.33
  Q 1291.37 1060.34 1291.27 1060.85
  L 1283.69 1101.64
  Q 1283.64 1101.88 1283.70 1102.13
  Q 1283.75 1102.33 1283.72 1102.49
  C 1283.05 1105.90 1276.78 1140.22 1276.43 1140.30
  Q 1276.20 1140.35 1276.17 1140.59
  Z"
/>
<path fill="#ffffff" d="
  M 471.04 1106.50
  L 437.80 1106.50
  Q 437.01 1106.50 437.16 1105.73
  L 445.42 1060.71
  Q 445.50 1060.25 445.97 1060.25
  L 563.02 1060.25
  Q 563.54 1060.25 563.45 1060.76
  L 555.15 1105.94
  A 0.68 0.67 -84.9 0 1 554.49 1106.50
  L 521.52 1106.50
  Q 521.04 1106.50 520.95 1106.97
  L 501.43 1211.71
  Q 501.33 1212.25 500.78 1212.25
  L 452.58 1212.25
  A 0.57 0.57 0.0 0 1 452.02 1211.57
  L 471.48 1107.04
  Q 471.58 1106.50 471.04 1106.50
  Z"
/>
<path fill="#ed1c2e" d="
  M 957.24 1098.63
  C 964.10 1098.08 978.35 1097.86 979.67 1107.45
  C 982.28 1126.37 966.47 1130.71 951.65 1129.35
  Q 951.06 1129.30 951.17 1128.72
  L 956.57 1099.23
  Q 956.67 1098.68 957.24 1098.63
  Z"
/>
<path fill="#ed1c2e" d="
  M 626.51 1169.39
  C 602.03 1167.43 601.51 1139.51 610.54 1123.54
  C 618.74 1109.02 637.70 1099.28 653.68 1107.83
  C 669.82 1116.47 667.93 1140.15 659.17 1153.24
  C 651.57 1164.61 640.24 1170.49 626.51 1169.39
  Z"
/>
<path fill="#ed1c2e" d="
  M 209.88 1105.82
  L 213.69 1159.65
  A 0.33 0.33 0.0 0 1 213.36 1160.00
  L 187.15 1160.00
  A 0.33 0.33 0.0 0 1 186.85 1159.54
  L 209.24 1105.72
  A 0.33 0.33 0.0 0 1 209.88 1105.82
  Z"
/>
</svg>
